# xmcd
#
# Track frame offsets: 
#        150
#        16112
#        34004
#        52073
#        72436
#        81868
#        98216
#        113941
#        128324
#        144874
#        161800
#        178722
#
# Disc length: 2640 seconds
#
# Revision: 0
# Processed by: cddbd v1.5.2PL0 Copyright (c) Steve Scherf et al.
# Submitted via: ExactAudioCopyFreeDBPlugin 1.0
#
DISCID=990a4e0c
DTITLE=Fantasia - Sketchbook
DYEAR=2019
DGENRE=R&B
TTITLE0=History
TTITLE1=PTSD (feat. T-Pain)
TTITLE2=Believer
TTITLE3=Enough
TTITLE4=The Way!
TTITLE5=Bad Girl
TTITLE6=Free
TTITLE7=Holy Ghost
TTITLE8=Take Off
TTITLE9=Fighting
TTITLE10=Warning
TTITLE11=Looking for You
EXTD=
EXTT0=
EXTT1=
EXTT2=
EXTT3=
EXTT4=
EXTT5=
EXTT6=
EXTT7=
EXTT8=
EXTT9=
EXTT10=
EXTT11=
PLAYORDER=
